<?xml version="1.0" encoding="UTF-8" standalone="no"?>
<!-- Created with Inkscape (http://www.inkscape.org/) -->

<svg
   width="64"
   height="64"
   viewBox="0 0 16.933333 16.933334"
   version="1.1"
   id="svg5"
   inkscape:version="1.1.1 (3bf5ae0d25, 2021-09-20)"
   sodipodi:docname="icons.svg"
   inkscape:export-filename="D:\Implementaciones\pano-test\assets\walk.png"
   inkscape:export-xdpi="96"
   inkscape:export-ydpi="96"
   xmlns:inkscape="http://www.inkscape.org/namespaces/inkscape"
   xmlns:sodipodi="http://sodipodi.sourceforge.net/DTD/sodipodi-0.dtd"
   xmlns="http://www.w3.org/2000/svg"
   xmlns:svg="http://www.w3.org/2000/svg">
  <sodipodi:namedview
     id="namedview7"
     pagecolor="#ffffff"
     bordercolor="#666666"
     borderopacity="1.0"
     inkscape:pageshadow="2"
     inkscape:pageopacity="0.0"
     inkscape:pagecheckerboard="0"
     inkscape:document-units="mm"
     showgrid="false"
     inkscape:snap-global="false"
     units="px"
     width="64px"
     inkscape:zoom="4.0920135"
     inkscape:cx="33.47985"
     inkscape:cy="81.011463"
     inkscape:window-width="1920"
     inkscape:window-height="1001"
     inkscape:window-x="-9"
     inkscape:window-y="-9"
     inkscape:window-maximized="1"
     inkscape:current-layer="layer1" />
  <defs
     id="defs2" />
  <g
     inkscape:label="Capa 1"
     id="layer1"
     style="display:inline"
     sodipodi:insensitive="true">
    <path
       id="path828"
       style="display:inline;fill:#ffffff;stroke-width:0.647562;stroke-linecap:round;stroke-linejoin:round"
       inkscape:label="walk icon"
       d="M 32,1.015625 C 14.887708,1.0153986 1.0153986,14.887708 1.015625,32 1.0153986,49.112292 14.887708,62.984601 32,62.984375 49.112292,62.984601 62.984601,49.112292 62.984375,32 62.984601,14.887708 49.112292,1.0153986 32,1.015625 Z m 3.28125,13.449219 c 1.815202,0 3.226562,1.471906 3.226562,3.287109 0,1.815203 -1.41136,3.287109 -3.226562,3.287109 -1.815203,0 -3.34375,-1.471906 -3.34375,-3.287109 0,-1.815203 1.528547,-3.287109 3.34375,-3.287109 z m -2.835938,8.767578 c 4.785286,0 6.668529,4.048448 7.048829,5.199219 l 0.669921,2.011718 1.591797,0.814453 c 0.765676,0.382906 1.203125,1.162527 1.203125,1.96875 0,1.274068 -1.039424,2.184261 -2.167968,2.179688 -0.325977,0 -0.657544,-0.07361 -0.96875,-0.230469 l -1.591797,-0.804687 c -1.026785,-0.522642 -1.805653,-1.43028 -2.173828,-2.535156 l -0.376953,-1.13086 -1.171876,4.701172 3.115235,3.408203 c 0.487843,0.530861 0.837771,1.191335 1.017578,1.902344 l 1.525391,6.095703 c 0.04346,0.174996 0.06445,0.352024 0.06445,0.525391 0,1.090488 -0.870653,2.195312 -2.19336,2.195312 -0.982946,0 -1.877788,-0.668401 -2.125,-1.658203 L 34.652344,42.847656 C 34.481098,42.146233 34.131377,41.496457 33.634766,40.957031 L 29.533203,36.46875 c -0.747589,-0.818555 -1.150391,-1.879351 -1.150391,-2.960938 10e-7,-0.349341 0.04181,-0.713162 0.13086,-1.0625 l 1.035156,-4.158203 -1.830078,0.742188 c -0.496749,0.197275 -0.891116,0.5752 -1.130859,1.054687 L 26.125,31.015625 c -0.382905,0.765468 -1.14878,1.208984 -1.943359,1.208984 -1.222693,0 -2.166016,-1.009812 -2.166016,-2.191406 0,-0.328791 0.07556,-0.663424 0.232422,-0.978515 l 0.453125,-0.931641 c 0.719231,-1.438463 1.925522,-2.569016 3.402344,-3.160156 2.544023,-1.030213 3.90463,-1.730469 6.341796,-1.730469 z m -4.951171,14.123047 c 0.599359,0.821973 -0.538155,-0.445957 3.253906,3.679687 l -0.925781,2.3125 c -0.231524,0.556207 -0.555058,1.059718 -0.97461,1.470703 l -4.066406,4.074219 c -0.428114,0.428134 -0.988102,0.642578 -1.548828,0.642578 -0.620594,0 -2.191222,-0.471419 -2.191406,-2.191406 0,-0.563055 0.212579,-1.126849 0.640625,-1.554688 l 3.423828,-3.433593 c 0.428251,-0.41031 0.753941,-0.914153 0.976562,-1.470703 z"
       transform="scale(0.26458333)"
       inkscape:export-filename="D:\Implementaciones\pano-test\assets\walk.png"
       inkscape:export-xdpi="96"
       inkscape:export-ydpi="96" />
    <path
       id="path1091"
       style="display:none;fill:#ffffff;stroke-width:0.647562;stroke-linecap:round;stroke-linejoin:round"
       inkscape:label="eye icon"
       d="M 32,1.015625 C 14.887708,1.0153986 1.0153986,14.887708 1.015625,32 1.0153986,49.112292 14.887708,62.984601 32,62.984375 49.112292,62.984601 62.984601,49.112292 62.984375,32 62.984601,14.887708 49.112292,1.0153986 32,1.015625 Z m 0,17.130859 c 4.996919,0 8.999303,2.278124 11.912109,4.984375 2.894253,2.683989 4.828868,5.845921 5.744141,8.109375 0.204094,0.488563 0.204094,1.03097 0,1.519532 -0.915273,2.207794 -2.849888,5.369727 -5.744141,8.109375 -2.912806,2.708723 -6.91519,4.984375 -11.912109,4.984375 -4.996916,0 -8.996633,-2.275652 -11.908203,-4.984375 -2.894254,-2.739648 -4.829838,-5.901581 -5.75,-8.109375 -0.202938,-0.488562 -0.202938,-1.030969 0,-1.519532 0.920162,-2.263454 2.855746,-5.425386 5.75,-8.109375 C 23.003367,20.424608 27.003084,18.146484 32,18.146484 Z m 0,4.947266 c -4.916521,0 -8.904297,3.989729 -8.904297,8.90625 0,4.916521 3.987776,8.90625 8.904297,8.90625 4.916521,0 8.90625,-3.989729 8.90625,-8.90625 0,-4.916521 -3.989729,-8.90625 -8.90625,-8.90625 z m 0,2.96875 c 3.277681,0 5.9375,2.604161 5.9375,5.9375 0,3.277681 -2.659819,5.9375 -5.9375,5.9375 -3.333339,0 -5.935547,-2.659819 -5.935547,-5.9375 0,-0.173148 0.0049,-0.346368 0.02344,-0.519531 C 26.663032,31.758759 27.331775,32 28.042969,32 30.226028,32 32,30.226028 32,28.042969 32,27.331775 31.758752,26.663032 31.480469,26.087891 31.653643,26.069333 31.826841,26.0625 32,26.0625 Z"
       transform="scale(0.26458333)" />
    <path
       id="path1254"
       style="display:none;fill:#000000;stroke-width:0.647562;stroke-linecap:round;stroke-linejoin:round"
       d="M 32,1.015625 A 30.983965,30.983965 0 0 0 1.015625,32 30.983965,30.983965 0 0 0 32,62.984375 30.983965,30.983965 0 0 0 62.984375,32 30.983965,30.983965 0 0 0 32,1.015625 Z m 0,14.220703 c 6.046706,0 10.889328,2.758428 14.414062,6.033203 3.502273,3.247881 5.845561,7.071616 6.953126,9.810547 0.246803,0.591224 0.246803,1.248621 0,1.839844 -1.107565,2.671608 -3.450853,6.495345 -6.953126,9.810547 C 42.889328,46.008253 38.046706,48.763672 32,48.763672 c -6.046705,0 -10.886878,-2.755419 -14.410156,-6.033203 -3.502268,-3.315202 -5.843545,-7.138939 -6.957032,-9.810547 -0.245495,-0.591223 -0.245495,-1.24862 0,-1.839844 1.113487,-2.738931 3.454764,-6.562666 6.957032,-9.810547 C 21.113122,17.994756 25.953295,15.236328 32,15.236328 Z m 0,5.988281 c -5.949436,0 -10.775391,4.825956 -10.775391,10.775391 0,5.949435 4.825955,10.777344 10.775391,10.777344 5.949436,0 10.777344,-4.827909 10.777344,-10.777344 0,-5.949435 -4.827908,-10.775391 -10.777344,-10.775391 z m 0,3.589844 c 3.966275,0 7.185547,3.149996 7.185547,7.183594 0,3.96632 -3.219272,7.185547 -7.185547,7.185547 -4.033643,0 -7.183594,-3.219227 -7.183594,-7.185547 0,-0.209223 0.0091,-0.417241 0.03125,-0.626953 0.695968,0.336612 1.504629,0.626953 2.365235,0.626953 2.641706,0 4.789062,-2.147356 4.789062,-4.789063 0,-0.859957 -0.292568,-1.667667 -0.628906,-2.363281 0.209223,-0.02207 0.41724,-0.03125 0.626953,-0.03125 z"
       transform="scale(0.26458333)"
       inkscape:export-filename="D:\Implementaciones\pano-test\assets\eye.png"
       inkscape:export-xdpi="3142.6699"
       inkscape:export-ydpi="3142.6699"
       inkscape:label="eye" />
    <path
       d="m 9.5864573,4.7261232 c 0.6194887,0 1.1010537,-0.5023705 1.1010537,-1.1218593 0,-0.6194888 -0.481565,-1.122093 -1.1010537,-1.122093 -0.6194889,0 -1.1407946,0.5023704 -1.1407946,1.1218592 0,0.6194888 0.5213057,1.1220931 1.1407946,1.1220931 z M 6.4471684,11.498655 c -0.075976,0.189938 -0.1869687,0.362342 -0.3331214,0.502371 l -1.1686129,1.171653 c -0.1460825,0.146012 -0.2191122,0.33803 -0.2191122,0.530189 6.28e-5,0.586994 0.5361034,0.748294 0.7478983,0.748294 0.1913636,0 0.3826804,-0.07305 0.5287863,-0.219158 l 1.387655,-1.390461 c 0.1431837,-0.140261 0.2541074,-0.312549 0.3331214,-0.50237 L 8.0393716,11.550435 C 6.7452243,10.142443 7.133749,10.574681 6.9292008,10.294159 Z M 12.207013,8.885114 c 0,-0.2751466 -0.149426,-0.541176 -0.410734,-0.6718532 l -0.54328,-0.277718 -0.22886,-0.6868143 C 10.894351,6.8559958 10.251765,5.4746526 8.6186521,5.4746526 7.7869006,5.4746526 7.3226347,5.7135649 6.4544152,6.065154 5.9504084,6.2668971 5.5385067,6.6526165 5.2930487,7.1435322 L 5.1382935,7.4614585 c -0.053533,0.107534 -0.079015,0.222081 -0.079015,0.3342903 0,0.4032521 0.3221342,0.7473606 0.7394125,0.7473606 0.2711725,0 0.5325267,-0.1508981 0.6632037,-0.4121354 L 6.6196434,7.8125801 C 6.7014627,7.6489415 6.8358334,7.5203683 7.0053629,7.4530428 L 7.6298075,7.1996368 7.2768158,8.6186169 c -0.03039,0.119222 -0.044416,0.2431201 -0.044416,0.3623426 0,0.3691217 0.1375967,0.7314642 0.3927326,1.0108191 L 9.024476,11.5232 c 0.1694827,0.184095 0.2891726,0.406292 0.3476151,0.645672 l 0.4294343,1.715633 c 0.084368,0.337797 0.3901606,0.565721 0.7256186,0.565721 0.451411,0 0.748298,-0.377069 0.748298,-0.749229 0,-0.05917 -0.0072,-0.119153 -0.02206,-0.17888 L 10.733244,11.441335 C 10.67188,11.198683 10.552119,10.973563 10.385629,10.792391 L 9.3222161,9.6291551 9.7224292,8.024796 9.8509557,8.4105153 c 0.1256506,0.3770701 0.3915633,0.6868145 0.7419833,0.8651805 l 0.543281,0.274679 c 0.106205,0.053533 0.219066,0.078897 0.330315,0.078897 0.385148,0.00156 0.740478,-0.309347 0.740478,-0.7441578 z"
       id="path1574"
       style="display:none;fill:#ff0000;stroke-width:0.0233769"
       inkscape:label="walk" />
    <path
       id="path1215"
       style="display:none;fill:#000000;stroke-width:0.647562;stroke-linecap:round;stroke-linejoin:round"
       d="M 32,1.015625 C 14.887708,1.0153986 1.0153986,14.887708 1.015625,32 1.0153986,49.112292 14.887708,62.984601 32,62.984375 49.112292,62.984601 62.984601,49.112292 62.984375,32 62.984601,14.887708 49.112292,1.0153986 32,1.015625 Z"
       transform="scale(0.26458333)"
       inkscape:export-filename="D:\Implementaciones\pano-test\assets\eye.png"
       inkscape:export-xdpi="3142.6699"
       inkscape:export-ydpi="3142.6699"
       sodipodi:nodetypes="ccccc"
       inkscape:label="base" />
  </g>
</svg>
