<?xml version="1.0" encoding="UTF-8" standalone="no"?>
<svg
   height="48"
   viewBox="0 -960 960 960"
   width="48"
   version="1.1"
   id="svg4"
   sodipodi:docname="screen_rotation.svg"
   inkscape:version="1.1.1 (3bf5ae0d25, 2021-09-20)"
   xmlns:inkscape="http://www.inkscape.org/namespaces/inkscape"
   xmlns:sodipodi="http://sodipodi.sourceforge.net/DTD/sodipodi-0.dtd"
   xmlns="http://www.w3.org/2000/svg"
   xmlns:svg="http://www.w3.org/2000/svg">
  <defs
     id="defs8" />
  <sodipodi:namedview
     id="namedview6"
     pagecolor="#ffffff"
     bordercolor="#666666"
     borderopacity="1.0"
     inkscape:pageshadow="2"
     inkscape:pageopacity="0.0"
     inkscape:pagecheckerboard="0"
     showgrid="false"
     inkscape:zoom="16.916667"
     inkscape:cx="24"
     inkscape:cy="23.970443"
     inkscape:window-width="2400"
     inkscape:window-height="1271"
     inkscape:window-x="2391"
     inkscape:window-y="-9"
     inkscape:window-maximized="1"
     inkscape:current-layer="svg4" />
  <path
     d="M516-191 191-516q-18-20-18-46t18-46l166-165q18-20 44.988-20T449-773l325 325q19 19 19 46t-19 46L608-191q-18 20-44.988 20T516-191Zm46-39 172-172-331-332-172 172 331 332ZM478 1q-98.511 0-185.579-37.5-87.068-37.5-152.244-103Q75-205 37.5-292.181 0-379.361 0-478h60q0 80 28.5 151.5t78.5 127Q217-144 285.5-109T433-66L303-196l43-43L574-11q-23 7-47.482 9.5Q502.037 1 478 1Zm422-479q0-80-28-151.5T794.5-757Q745-813 677-848.5T530-892l128 128-43 43-228-228q23-6 45.5-8.5T478-960q100 0 187.5 38t153 103.5Q884-753 922-665.5T960-478h-60Zm-417-4Z"
     id="path2"
     style="fill:#ffffff" />
</svg>
