<?xml version="1.0" encoding="UTF-8" standalone="no"?>
<svg
   height="48"
   viewBox="0 -960 960 960"
   width="48"
   version="1.1"
   id="svg4"
   sodipodi:docname="touchpad_mouse.svg"
   inkscape:version="1.1.1 (3bf5ae0d25, 2021-09-20)"
   xmlns:inkscape="http://www.inkscape.org/namespaces/inkscape"
   xmlns:sodipodi="http://sodipodi.sourceforge.net/DTD/sodipodi-0.dtd"
   xmlns="http://www.w3.org/2000/svg"
   xmlns:svg="http://www.w3.org/2000/svg">
  <defs
     id="defs8" />
  <sodipodi:namedview
     id="namedview6"
     pagecolor="#ffffff"
     bordercolor="#666666"
     borderopacity="1.0"
     inkscape:pageshadow="2"
     inkscape:pageopacity="0.0"
     inkscape:pagecheckerboard="0"
     showgrid="false"
     inkscape:zoom="16.916667"
     inkscape:cx="24"
     inkscape:cy="23.970443"
     inkscape:window-width="2400"
     inkscape:window-height="1271"
     inkscape:window-x="2391"
     inkscape:window-y="-9"
     inkscape:window-maximized="1"
     inkscape:current-layer="svg4" />
  <path
     d="M659.798-140Q726-140 773-186.857T820-300v-70H500v70q0 66.286 46.798 113.143t113 46.857ZM500-430h130v-147q-54 11-90 51.5T500-430Zm190 0h130q-4-55-40-95.5T690-577v147ZM660-80q-92 0-156-64t-64-156v-120q0-92 64-156t156-64q92 0 156 64t64 156v120q0 92-64 156T660-80ZM140-220v-520 520Zm0 60q-24 0-42-18t-18-42v-520q0-24 18-42t42-18h680q24 0 42 18t18 42v146q-12.825-16.72-27.912-30.36Q837-638 820-650v-90H140v520h251q5 15.836 11.5 30.918Q409-174 417-160H140Z"
     id="path2"
     style="fill:#ffffff" />
</svg>
